<svg width="179" height="219" viewBox="0 0 179 219" fill="none" xmlns="http://www.w3.org/2000/svg">
<path fill-rule="evenodd" clip-rule="evenodd" d="M101.5 164.925C98 167.259 93.5 171.425 91 178.425C88.8139 184.547 89.5 218.425 117 218.425C142 218.425 144.5 193.925 140.5 189.425C140.5 189.425 142.5 185.425 131 170.425C119.5 155.425 117 152.425 117 152.425L118 150.925C118 150.925 142 164.925 147 166.925C152 168.925 158.931 167.897 165.5 164.425C172.026 160.977 175.474 158.023 177.5 150.925C179.66 143.356 178.787 137.826 175 130.925C171.127 123.867 166.627 120.502 159 117.925C150.274 114.977 143.558 115.463 135.5 119.925C128.719 123.681 122.5 134.925 122.5 134.925C118.5 130.925 111.5 129.925 108.5 129.925C103 118.925 90.9 96.8254 88.5 92.4254C86.1 88.0254 77.6667 74.9254 73.5 69.4254C67.5 64.5921 55.3 56.1254 54.5 60.9254C53.7 65.7254 54.8333 70.9254 55.5 72.9254L79.5 124.425L79 125.425L28 117.425C28.8 133.825 69 144.259 89 147.425L101 162.425L101.5 164.925ZM104 184.425C104 180.825 108 177.925 110 176.925C110 176.925 118 173.425 124.5 181.925C131 190.425 129 196.425 129 196.425C128 199.092 124.2 204.425 117 204.425C108 204.425 104 188.925 104 184.425ZM152.5 156.925C140.5 156.925 136.5 145.425 137 139.925C137.5 134.425 145 131.425 150 131.425C158 131.425 163.167 138.259 164.5 141.425C165.5 146.592 164.5 156.925 152.5 156.925ZM95.5001 141.925C95.7762 138.888 98.45 136.925 101.5 136.925C104.55 136.925 107.224 138.888 107.5 141.925C107.8 145.225 104.814 147.925 101.5 147.925C98.1864 147.925 95.2001 145.225 95.5001 141.925Z" fill="#5287C4" style="fill:#5287C4;fill:color(display-p3 0.3216 0.5294 0.7686);fill-opacity:1;"/>
<path d="M154.5 202.5V181.5H159.5C168 181.5 175.5 175.5 179 172.5V188C179 195.2 169.5 202.5 163.5 202.5H154.5Z" fill="#5287C4" style="fill:#5287C4;fill:color(display-p3 0.3216 0.5294 0.7686);fill-opacity:1;"/>
<path fill-rule="evenodd" clip-rule="evenodd" d="M17.5 0.5C12 0.666667 0.899974 4 0.499974 16C0.0999745 28 0.333308 134 0.499974 185.5C1.66663 191 6.69995 202.1 17.5 202.5C28.3 202.9 64.3333 202.667 81 202.5C78.3333 195.167 75.3 177.3 84.5 164.5L82.5 160C80.3167 158.666 75.8677 157.743 70.2379 156.576C52.6608 152.933 23.5741 146.903 16 118.5V106C16.1667 103.667 18.7 99 27.5 99V34.5C27.6667 32.6667 29.5 29 33.5 29C34.7 29 82.6667 28.6667 106.5 28.5V57.5C106.5 66 121 75 126.5 75H152.5V103.89C164.5 103.89 179 112 179 114.5V53L127.5 0L17.5 0.5ZM124.5 53V23.5H127.5L156.5 53V56H127.5C125.9 56 124.833 54.1667 124.5 53Z" fill="#5287C4" style="fill:#5287C4;fill:color(display-p3 0.3216 0.5294 0.7686);fill-opacity:1;"/>
</svg>
